<svg width="56" height="50" viewBox="0 0 56 50" fill="none" xmlns="http://www.w3.org/2000/svg">
<path d="M51.0625 9.6875H7.3125C6.73234 9.6875 6.17594 9.45703 5.7657 9.0468C5.35547 8.63656 5.125 8.08016 5.125 7.5C5.125 6.91984 5.35547 6.36344 5.7657 5.9532C6.17594 5.54297 6.73234 5.3125 7.3125 5.3125H44.5C45.0802 5.3125 45.6366 5.08203 46.0468 4.6718C46.457 4.26156 46.6875 3.70516 46.6875 3.125C46.6875 2.54484 46.457 1.98844 46.0468 1.5782C45.6366 1.16797 45.0802 0.9375 44.5 0.9375H7.3125C5.57202 0.9375 3.90282 1.6289 2.67211 2.85961C1.4414 4.09032 0.75 5.75952 0.75 7.5V42.5C0.75 44.2405 1.4414 45.9097 2.67211 47.1404C3.90282 48.3711 5.57202 49.0625 7.3125 49.0625H51.0625C52.2228 49.0625 53.3356 48.6016 54.1561 47.7811C54.9766 46.9606 55.4375 45.8478 55.4375 44.6875V14.0625C55.4375 12.9022 54.9766 11.7894 54.1561 10.9689C53.3356 10.1484 52.2228 9.6875 51.0625 9.6875ZM41.2188 31.5625C40.5698 31.5625 39.9354 31.3701 39.3958 31.0095C38.8562 30.649 38.4356 30.1365 38.1873 29.5369C37.9389 28.9374 37.8739 28.2776 38.0005 27.6411C38.1272 27.0046 38.4397 26.4199 38.8986 25.9611C39.3574 25.5022 39.9421 25.1897 40.5786 25.063C41.2151 24.9364 41.8749 25.0014 42.4744 25.2498C43.074 25.4981 43.5865 25.9187 43.947 26.4583C44.3076 26.9979 44.5 27.6323 44.5 28.2812C44.5 29.1515 44.1543 29.9861 43.5389 30.6014C42.9236 31.2168 42.089 31.5625 41.2188 31.5625Z" fill="#262626"/>
</svg>
