<svg width="54" height="54" viewBox="0 0 54 54" fill="none" xmlns="http://www.w3.org/2000/svg">
<path d="M48.875 0.75H5.125C3.96468 0.75 2.85188 1.21094 2.03141 2.03141C1.21094 2.85188 0.75 3.96468 0.75 5.125V48.875C0.75 50.0353 1.21094 51.1481 2.03141 51.9686C2.85188 52.7891 3.96468 53.25 5.125 53.25H34.8449C35.4195 53.2509 35.9886 53.1381 36.5194 52.918C37.0502 52.6979 37.5322 52.3749 37.9375 51.9676L51.9676 37.9375C52.3749 37.5322 52.6979 37.0502 52.918 36.5194C53.1381 35.9886 53.2509 35.4195 53.25 34.8449V5.125C53.25 3.96468 52.7891 2.85188 51.9686 2.03141C51.1481 1.21094 50.0353 0.75 48.875 0.75ZM18.25 16.0625H35.75C36.3302 16.0625 36.8866 16.293 37.2968 16.7032C37.707 17.1134 37.9375 17.6698 37.9375 18.25C37.9375 18.8302 37.707 19.3866 37.2968 19.7968C36.8866 20.207 36.3302 20.4375 35.75 20.4375H18.25C17.6698 20.4375 17.1134 20.207 16.7032 19.7968C16.293 19.3866 16.0625 18.8302 16.0625 18.25C16.0625 17.6698 16.293 17.1134 16.7032 16.7032C17.1134 16.293 17.6698 16.0625 18.25 16.0625ZM27 37.9375H18.25C17.6698 37.9375 17.1134 37.707 16.7032 37.2968C16.293 36.8866 16.0625 36.3302 16.0625 35.75C16.0625 35.1698 16.293 34.6134 16.7032 34.2032C17.1134 33.793 17.6698 33.5625 18.25 33.5625H27C27.5802 33.5625 28.1366 33.793 28.5468 34.2032C28.957 34.6134 29.1875 35.1698 29.1875 35.75C29.1875 36.3302 28.957 36.8866 28.5468 37.2968C28.1366 37.707 27.5802 37.9375 27 37.9375ZM18.25 29.1875C17.6698 29.1875 17.1134 28.957 16.7032 28.5468C16.293 28.1366 16.0625 27.5802 16.0625 27C16.0625 26.4198 16.293 25.8634 16.7032 25.4532C17.1134 25.043 17.6698 24.8125 18.25 24.8125H35.75C36.3302 24.8125 36.8866 25.043 37.2968 25.4532C37.707 25.8634 37.9375 26.4198 37.9375 27C37.9375 27.5802 37.707 28.1366 37.2968 28.5468C36.8866 28.957 36.3302 29.1875 35.75 29.1875H18.25ZM35.75 47.9699V35.75H47.9727L35.75 47.9699Z" fill="#262626"/>
</svg>
