<svg width="250" height="232" viewBox="0 0 250 232" fill="none" xmlns="http://www.w3.org/2000/svg">
<path fill-rule="evenodd" clip-rule="evenodd" d="M46.7543 169.119C61.8443 184.296 120.198 175.578 158.621 175.578C175.197 175.578 230.824 183.254 207.853 130.538C132.537 -42.309 -1.05853 121.031 46.7543 169.119Z" fill="#AF8050"/>
<path fill-rule="evenodd" clip-rule="evenodd" d="M113.52 170.339C113.593 170.287 113.67 170.231 113.702 170.151C113.805 169.894 113.403 169.723 113.107 169.729C112.676 169.738 112.125 170.006 112.257 170.384C112.333 170.603 112.625 170.705 112.87 170.664C113.115 170.624 113.323 170.479 113.52 170.339ZM114.799 165.833C115.124 165.927 115.444 166.043 115.727 166.218C116.258 166.547 116.62 167.057 116.966 167.553C117.215 167.909 117.467 168.271 117.591 168.679C117.726 169.12 117.702 169.591 117.612 170.042C117.331 171.447 116.393 172.729 115.086 173.492C113.78 174.256 112.124 174.489 110.63 174.121C110.339 174.049 110.047 173.952 109.823 173.766C109.635 173.609 109.508 173.401 109.392 173.193C108.784 172.103 108.374 170.893 108.421 169.667C108.467 168.441 109.013 167.201 110.046 166.431C111.342 165.464 113.21 165.372 114.799 165.833" fill="white"/>
<path fill-rule="evenodd" clip-rule="evenodd" d="M183.399 99.1576C182.687 99.1493 182.019 99.7011 181.949 100.356C181.92 100.624 182.043 100.956 182.331 100.993C182.547 101.021 182.737 100.866 182.882 100.716C183.189 100.398 183.453 100.044 183.665 99.6657C183.736 99.5387 183.799 99.3758 183.706 99.2619C183.637 99.1789 183.512 99.1589 183.399 99.1576ZM183.091 96.2212C184.102 96.5472 185.019 97.1206 185.722 97.8672C186.326 98.5088 186.787 99.3418 186.66 100.184C186.613 100.493 186.49 100.788 186.349 101.072C185.815 102.147 184.898 103.178 183.638 103.386C182.977 103.495 182.295 103.364 181.66 103.164C180.925 102.933 180.224 102.609 179.583 102.204C179.243 101.989 178.905 101.734 178.756 101.379C178.654 101.134 178.65 100.865 178.654 100.603C178.664 99.9541 178.71 99.2944 178.955 98.6864C179.265 97.9171 179.871 97.282 180.513 96.7153C180.772 96.4873 181.046 96.2628 181.378 96.1406C181.921 95.9407 182.539 96.0432 183.091 96.2212Z" fill="white"/>
<path fill-rule="evenodd" clip-rule="evenodd" d="M183.4 49.4206C187.584 53.408 190.887 58.1759 193.049 63.3502C193.198 63.7056 193.342 64.1004 193.2 64.4581C192.109 67.2126 190.004 69.509 187.94 71.7418C186.621 73.1686 185.303 74.5954 183.984 76.0222C182.725 77.3842 181.465 78.7466 180.164 80.0744C173.537 86.835 165.706 92.7467 156.637 96.3841C156.294 96.5213 155.927 96.6582 155.559 96.6034C155.19 96.5485 154.845 96.2191 154.941 95.8871C156.062 92.0291 157.191 87.9956 156.291 84.0888C156.074 83.1464 155.832 81.9599 156.678 81.3928C163.528 76.8018 168.459 70.2395 173.185 63.7664C174.374 62.1387 175.559 60.5066 176.611 58.801C178.478 55.7729 179.916 52.5209 180.877 49.1533C181.009 48.6912 181.642 48.4831 182.145 48.6042C182.647 48.7253 183.039 49.077 183.4 49.4206" fill="white"/>
<path fill-rule="evenodd" clip-rule="evenodd" d="M52.8977 64.9108C53.578 70.5936 55.4716 76.1502 58.4377 81.168C60.2743 84.2749 62.5081 87.1636 64.736 90.0436C66.2863 92.0477 67.9442 94.1362 70.3631 95.172C71.0063 95.4473 70.9166 96.3041 70.7439 96.9394C69.9978 99.6852 69.6497 102.523 69.7117 105.354C69.7176 105.621 69.7252 105.898 69.6115 106.144C69.2254 106.979 67.9029 106.84 66.9923 106.499C61.3585 104.386 57.0332 100.136 52.9926 95.9381C47.7466 90.4876 42.5786 84.7977 39.4796 78.0892C39.2689 77.6332 39.0644 77.1532 39.0997 76.6584C39.1356 76.1542 39.416 75.696 39.7003 75.2644C42.5097 71.001 46.4181 67.3604 51.0095 64.7302C51.3329 64.545 51.6782 64.3593 52.0585 64.3471C52.4388 64.335 52.8558 64.5614 52.8977 64.9108Z" fill="white"/>
<path fill-rule="evenodd" clip-rule="evenodd" d="M182.578 164.603C183.064 163.843 183.666 163.006 184.608 162.862C184.98 162.805 185.176 162.432 185.302 162.104C186.86 158.067 187.01 153.577 185.725 149.458C185.358 148.282 185.81 147.036 186.257 145.884C187.41 142.912 188.563 139.94 189.716 136.968C189.055 135.912 187.313 135.943 186.421 135.044C185.272 133.888 186.139 132.049 187.038 130.718C192.295 122.941 197.551 115.163 202.807 107.386C203.451 106.433 204.864 106.134 206.048 106.388C207.233 106.642 208.244 107.331 209.218 108.003C213.052 110.648 216.885 113.294 220.719 115.939C222.776 117.359 225.047 119.173 224.929 121.543C224.863 122.855 224.051 124.021 223.265 125.115C220.227 129.344 217.189 133.574 214.151 137.804C212.439 140.187 212.912 143.317 212.395 146.136C211.577 150.592 208.271 154.251 205.209 157.774C202.147 161.298 199.083 165.233 198.911 169.749C198.706 175.131 195.938 180.388 191.482 183.86C192.774 180.963 184.608 182.118 175.267 178.684C176.804 173.66 179.706 169.1 182.578 164.603Z" fill="white"/>
<path fill-rule="evenodd" clip-rule="evenodd" d="M80.0035 177.204C79.421 176.764 79.2352 176.021 79.1324 175.33C77.9427 167.338 83.0518 159.449 82.1418 151.426C81.6728 147.291 79.6165 143.433 77.029 140.04C75.2421 137.696 75.1419 134.557 75.8085 131.753C76.4752 128.95 77.82 126.328 78.727 123.583C82.7606 111.377 77.8525 98.3364 73 86.3897C82.6694 82.0694 93.953 82.9062 104.665 83.4915C115.377 84.0768 126.898 84.1182 135.826 78.5908C137.05 90.5483 134.351 102.519 131.668 114.269C145.282 113.044 158.896 111.818 172.51 110.593C172.9 110.558 173.327 110.53 173.651 110.735C174.084 111.009 174.151 111.566 174.175 112.051C174.812 124.487 175.198 136.933 175.333 149.382C175.336 149.694 175.324 150.042 175.087 150.263C174.884 150.453 174.575 150.493 174.288 150.522C155.215 152.486 136.142 154.45 117.068 156.414C115.419 156.584 113.07 156.187 113.166 154.648C113.597 147.789 113.345 140.893 112.416 134.077C107.347 133.899 102.244 134.614 97.4564 136.17C96.3703 136.523 95.0643 137.473 95.6501 138.392C99.5255 144.477 94.7155 153.624 99.979 158.732C101.789 160.488 101.664 163.251 101.305 165.659C100.536 170.82 99.23 175.912 97.4107 180.841C98.2902 175.168 80.5409 180.246 80.0035 177.204Z" fill="white"/>
<path fill-rule="evenodd" clip-rule="evenodd" d="M25.4486 48.4164C25.4649 48.5376 25.3939 48.6648 25.2777 48.7228C25.1851 48.6373 25.0926 48.5517 25 48.4661C25.1388 48.41 25.2961 48.3941 25.4448 48.4209L25.4486 48.4164Z" fill="#262626"/>
<path fill-rule="evenodd" clip-rule="evenodd" d="M114.466 165.833C114.791 165.927 115.111 166.043 115.394 166.218C115.925 166.547 116.287 167.057 116.633 167.553C116.882 167.909 117.134 168.271 117.258 168.679C117.393 169.12 117.369 169.591 117.279 170.042C116.998 171.447 116.06 172.729 114.753 173.492C113.447 174.256 111.791 174.489 110.297 174.121C110.006 174.049 109.714 173.952 109.49 173.766C109.302 173.609 109.175 173.401 109.059 173.193C108.451 172.103 108.041 170.893 108.088 169.667C108.134 168.441 108.68 167.201 109.713 166.431C111.009 165.464 112.876 165.372 114.466 165.833M112.644 173.13C113.457 173.016 114.172 172.525 114.639 171.901C115.106 171.276 115.345 170.526 115.46 169.775C115.526 169.345 115.532 168.853 115.204 168.543C115.008 168.358 114.727 168.275 114.458 168.2C113.448 167.921 112.295 167.684 111.39 168.184C110.731 168.548 110.364 169.223 110.031 169.862C109.641 170.611 109.737 171.556 110.272 172.224C110.806 172.892 111.755 173.255 112.644 173.13V173.13Z" fill="#262626"/>
<path fill-rule="evenodd" clip-rule="evenodd" d="M151.58 132.114C151.594 131.955 151.615 131.784 151.729 131.664C151.84 131.547 152.016 131.504 152.18 131.469C156.425 130.556 160.809 130.199 165.161 130.411C165.716 130.438 166.429 130.612 166.465 131.123C166.675 134.057 166.886 136.991 167.096 139.925C167.107 140.073 167.112 140.238 167.009 140.352C166.925 140.446 166.79 140.482 166.663 140.512C162.137 141.603 157.365 141.817 152.745 141.139C152.626 141.122 152.501 141.101 152.409 141.03C152.297 140.943 152.258 140.803 152.226 140.671C151.545 137.871 151.326 134.975 151.58 132.114ZM152.581 136.981C152.664 138.089 152.915 139.186 153.325 140.23C153.734 140.284 154.139 140.363 154.546 140.426C158.057 140.976 161.648 140.423 165.158 139.871C165.408 139.832 165.681 139.78 165.834 139.595C165.991 139.405 165.971 139.142 165.942 138.905C165.821 137.894 165.7 136.883 165.579 135.872C165.57 135.791 165.557 135.703 165.498 135.642C165.425 135.569 165.306 135.557 165.199 135.55C162.704 135.399 160.202 135.571 157.709 135.743C156.331 135.838 154.953 135.933 153.575 136.028C153.251 136.05 152.883 136.094 152.697 136.34C152.559 136.521 152.564 136.76 152.581 136.981ZM152.619 132.753C152.401 133.399 152.362 134.096 152.507 134.759C152.533 134.878 152.569 135.004 152.667 135.086C152.812 135.206 153.034 135.186 153.227 135.16C155.574 134.842 157.948 134.684 160.32 134.688C160.655 134.688 160.758 134.272 160.754 133.963C160.749 133.51 160.743 133.057 160.738 132.603C160.735 132.341 160.721 132.052 160.526 131.861C160.293 131.632 159.903 131.639 159.563 131.663C158.777 131.718 157.991 131.774 157.205 131.829C156.829 131.856 155.831 132.092 155.373 132.12C154.575 132.237 153.777 132.355 152.979 132.473C152.894 132.485 152.804 132.5 152.738 132.551C152.674 132.602 152.644 132.679 152.619 132.753ZM163.145 134.724C163.769 134.731 164.393 134.674 165.003 134.552C165.149 134.523 165.301 134.487 165.405 134.388C165.557 134.244 165.555 134.018 165.544 133.816C165.512 133.232 165.48 132.648 165.448 132.064C165.436 131.855 165.411 131.62 165.234 131.49C165.079 131.375 164.86 131.382 164.662 131.395C163.968 131.438 163.275 131.482 162.581 131.526C162.471 131.532 162.356 131.541 162.264 131.597C162.096 131.7 162.071 131.915 162.066 132.101C162.051 132.72 162.078 133.34 162.148 133.956C162.168 134.134 162.196 134.322 162.316 134.464C162.502 134.684 162.843 134.72 163.145 134.724Z" fill="#CFB396"/>
<path fill-rule="evenodd" clip-rule="evenodd" d="M162.443 119.294C163.371 118.923 164.508 119.047 165.317 119.607C166.125 120.167 166.572 121.142 166.446 122.068C167.014 121.784 167.735 121.505 168.265 121.846C168.864 122.231 168.727 123.059 168.637 123.728C168.48 124.896 168.684 126.104 169.218 127.173C169.439 127.615 169.629 128.285 169.139 128.463C169.056 128.493 168.966 128.5 168.878 128.506C163.134 128.934 157.391 129.361 151.648 129.789C151.49 129.801 151.314 129.807 151.195 129.711C151.073 129.613 151.058 129.447 151.052 129.298C150.996 128.05 150.941 126.802 150.886 125.554C150.872 125.219 150.865 124.858 151.069 124.581C151.408 124.123 152.117 124.125 152.71 124.037C153.303 123.949 153.992 123.487 153.764 122.974C153.51 122.402 154.376 121.985 155.038 121.892C155.7 121.799 156.577 121.434 156.377 120.844C156.158 120.2 157.117 119.8 157.842 119.711C158.353 119.648 158.888 119.588 159.373 119.75C159.858 119.912 160.268 120.373 160.159 120.839C160.033 121.372 160.736 121.869 161.291 121.681C161.845 121.492 162.069 120.793 161.789 120.312C161.56 119.92 162.001 119.471 162.443 119.294ZM165.409 127.519C165.194 127.151 165.193 126.713 165.191 126.295C165.182 124.331 165.051 122.369 164.8 120.419C164.787 120.321 164.767 120.211 164.68 120.153C164.605 120.104 164.504 120.11 164.412 120.117C163.963 120.156 163.431 120.248 163.254 120.631C163.178 120.794 163.187 120.979 163.198 121.156C163.311 123.123 163.425 125.091 163.539 127.059C163.55 127.242 163.576 127.452 163.741 127.555C163.831 127.61 163.944 127.621 164.052 127.626C164.507 127.649 164.965 127.613 165.409 127.519ZM157.684 124.494C157.629 124.821 157.55 125.147 157.53 125.478C157.495 126.032 157.621 126.582 157.746 127.124C157.827 127.472 158.313 127.643 158.67 127.509C159.026 127.375 159.241 127.023 159.301 126.672C159.36 126.321 159.291 125.963 159.23 125.612C158.992 124.233 158.889 122.834 158.922 121.437C158.931 121.084 158.558 120.765 158.177 120.799C157.797 120.834 157.499 121.215 157.582 121.56C157.814 122.52 157.849 123.521 157.684 124.494ZM161.462 122.609C161.238 122.338 160.724 122.483 160.55 122.783C160.375 123.083 160.428 123.447 160.472 123.786C160.585 124.67 160.596 125.565 160.504 126.452C160.477 126.713 160.447 126.998 160.603 127.217C160.843 127.555 161.37 127.552 161.805 127.511C161.941 127.498 162.098 127.474 162.166 127.364C162.214 127.288 162.203 127.193 162.19 127.106C161.99 125.731 161.789 124.356 161.589 122.981C161.57 122.85 161.548 122.714 161.462 122.609ZM166.436 123.2C166.268 123.413 166.232 123.689 166.217 123.953C166.167 124.855 166.297 125.757 166.426 126.653C166.477 127.006 166.651 127.46 167.036 127.436C167.426 127.411 167.527 126.93 167.518 126.569C167.494 125.613 167.47 124.658 167.446 123.702C167.44 123.451 167.411 123.16 167.186 123.019C166.949 122.872 166.605 122.988 166.436 123.2ZM154.664 122.974C154.664 122.974 154.835 124.221 154.895 124.857C154.97 125.655 155.065 126.451 155.181 127.244C155.198 127.359 155.221 127.484 155.313 127.563C155.472 127.701 156.087 127.61 156.201 127.437C156.314 127.265 156.308 127.05 156.298 126.849C156.267 126.212 156.236 125.575 156.204 124.938C156.171 124.255 155.995 122.783 155.995 122.783M152.432 127.49C152.481 127.633 152.539 127.782 152.664 127.878C152.908 128.064 153.304 127.949 153.496 127.717C153.689 127.484 153.732 127.178 153.769 126.887C153.814 126.531 153.857 126.16 153.732 125.82C153.607 125.48 153.262 125.181 152.874 125.213C152.519 125.242 152.243 125.542 152.16 125.864C152.077 126.185 152.147 126.522 152.233 126.842C152.292 127.06 152.358 127.276 152.432 127.49Z" fill="#F2F2F2"/>
<path fill-rule="evenodd" clip-rule="evenodd" d="M175.714 76.4231C175.25 77.0662 174.747 77.7177 174.03 78.1147C173.312 78.5118 172.322 78.5892 171.677 78.0969C170.966 77.5538 170.922 76.5747 170.978 75.7238C171 75.3961 171.028 75.0659 171.13 74.7514C171.306 74.2059 171.691 73.7403 172.093 73.3087C172.58 72.785 173.12 72.2798 173.796 71.9851C174.472 71.6904 175.312 71.6387 175.945 72.0053C176.703 72.4442 176.984 73.3779 176.84 74.1938C176.697 75.0097 176.21 75.7351 175.714 76.4231M174.241 77.1035C174.826 76.5281 175.328 75.8806 175.728 75.1835C175.992 74.7248 176.216 74.2263 176.206 73.7069C176.195 73.1876 175.899 72.6448 175.377 72.4521C174.697 72.2011 173.951 72.6026 173.382 73.0292C172.978 73.333 172.586 73.6661 172.327 74.0838C172.163 74.3479 172.056 74.6385 171.95 74.927C171.75 75.4727 171.548 76.0414 171.624 76.6132C171.7 77.185 172.143 77.7591 172.763 77.8183C173.337 77.8732 173.846 77.4922 174.241 77.1035Z" fill="#CFB396"/>
<path fill-rule="evenodd" clip-rule="evenodd" d="M56.2667 83.6915C56.9931 84.3713 57.5927 85.1665 58.0313 86.0316C58.4722 86.901 58.0277 88.0184 57.1626 88.5503C56.2974 89.0822 55.1278 89.0752 54.1792 88.6832C53.2306 88.2912 52.4851 87.5597 51.9361 86.7445C51.5222 86.1299 51.2012 85.4411 51.1668 84.718C51.1324 83.9949 51.4206 83.2338 52.0397 82.7903C52.666 82.3418 53.5465 82.2777 54.3039 82.493C55.0612 82.7082 55.71 83.1705 56.2667 83.6915ZM53.4324 83.278C52.8039 83.2182 52.2455 83.7513 52.1377 84.3265C52.0299 84.9017 52.2672 85.4854 52.5743 85.9956C53.2403 87.102 54.4285 88.0847 55.797 88.0235C56.5006 87.9921 57.2717 87.5418 57.2592 86.8911C57.2538 86.6097 57.1035 86.3501 56.9535 86.1052C56.5549 85.4547 56.1244 84.8107 55.5494 84.2847C54.9744 83.7588 54.2373 83.3546 53.4324 83.278Z" fill="#CFB396"/>
<path fill-rule="evenodd" clip-rule="evenodd" d="M111.191 169.277C111.695 168.923 112.323 168.694 112.955 168.732C113.588 168.769 114.213 169.104 114.478 169.637C114.762 170.208 114.585 170.917 114.142 171.394C113.699 171.871 113.032 172.134 112.358 172.221C111.898 172.28 111.35 172.227 111.099 171.867C110.977 171.693 110.95 171.479 110.925 171.273C110.881 170.904 110.838 170.534 110.794 170.165C110.775 170.009 110.757 169.846 110.812 169.697C110.876 169.522 111.031 169.389 111.191 169.277M113.187 170.339C113.26 170.287 113.337 170.231 113.369 170.151C113.471 169.894 113.07 169.723 112.773 169.729C112.343 169.738 111.792 170.006 111.923 170.384C111.999 170.603 112.291 170.705 112.536 170.664C112.781 170.624 112.989 170.48 113.187 170.339H113.187Z" fill="#262626"/>
<path fill-rule="evenodd" clip-rule="evenodd" d="M182.664 51.2199C186.595 54.9801 189.698 59.4766 191.729 64.3562C191.869 64.6914 192.004 65.0637 191.871 65.4011C190.846 67.9987 188.869 70.1643 186.929 72.27L183.212 76.3066C182.029 77.5911 180.846 78.8758 179.623 80.128C173.397 86.5037 166.041 92.0787 157.52 95.509C157.199 95.6384 156.854 95.7675 156.507 95.7158C156.161 95.664 155.837 95.3534 155.927 95.0404C156.981 91.4021 158.041 87.5982 157.196 83.9138C156.992 83.0251 156.764 81.9062 157.559 81.3714C163.994 77.0418 168.627 70.8532 173.067 64.7487C174.184 63.2137 175.298 61.6745 176.285 60.0661C178.04 57.2104 179.391 54.1436 180.293 50.9678C180.417 50.532 181.013 50.3357 181.484 50.4499C181.956 50.5641 182.325 50.8958 182.664 51.2199ZM179.912 55.8895C179.513 55.7368 179.144 56.1497 178.941 56.5021C178.721 56.8835 178.5 57.2655 178.28 57.6478L178.28 57.6481L178.28 57.6484C174.207 64.7175 170.071 71.8951 163.864 77.463C163.277 77.9891 162.622 78.6246 162.73 79.3732C163.076 81.7729 161.69 84.307 159.393 85.472C158.35 86.0009 158.362 87.3657 158.515 88.4557C158.576 88.8921 158.755 89.4391 159.229 89.4761C160.621 89.5845 161.957 90.2176 162.864 91.1989C163.151 91.5085 163.693 91.315 164.066 91.0983C173.457 85.6438 180.672 77.5871 187.717 69.6712C187.96 69.3981 188.218 69.054 188.092 68.7204C187.026 65.9146 187.196 62.7259 188.557 60.0311C187.754 58.5549 186.797 57.1503 185.704 55.843C183.885 56.5727 181.745 56.5899 179.912 55.8895ZM157.639 94.068C158.009 94.2472 158.458 94.0769 158.828 93.8981C159.802 93.4284 160.74 92.8952 161.633 92.3039C161.869 92.1476 161.94 91.8355 161.856 91.5786C161.773 91.3216 161.564 91.1145 161.333 90.9523C160.611 90.446 159.601 90.3128 158.755 90.6122C158.598 90.6675 158.443 90.7397 158.335 90.8581C158.209 90.9967 158.163 91.1813 158.122 91.3586C157.918 92.2545 157.757 93.1588 157.639 94.068ZM184.01 54.0211C183.372 52.8684 182.388 51.8813 181.197 51.1991C180.782 51.5366 180.702 52.0493 180.62 52.5721C180.563 52.9308 180.506 53.2941 180.34 53.6088C180.286 53.7113 180.22 53.8093 180.154 53.9072C180.028 54.0934 179.903 54.2788 179.863 54.4927C179.801 54.8188 180.1 55.2281 180.439 55.1201C180.714 55.0324 181.003 55.0887 181.294 55.1456C181.448 55.1756 181.602 55.2057 181.755 55.2149C182.65 55.2682 183.392 54.6209 184.01 54.0211ZM189.067 60.9301C188.383 62.1863 188.491 63.6699 188.616 65.0712L188.794 67.0809C188.814 67.3019 188.944 67.6001 189.174 67.5389C189.318 67.1688 189.59 66.8634 189.864 66.5572C190.103 66.2893 190.342 66.0209 190.496 65.7079C191.018 64.648 190.439 63.4265 189.868 62.3883L189.067 60.9301ZM158.47 83.2352C158.498 83.6283 158.94 83.9225 159.366 83.9115C159.793 83.9004 160.176 83.6456 160.426 83.3258C160.675 83.006 160.811 82.6251 160.944 82.2508L161.384 81.0148C161.506 80.6702 161.514 80.1433 161.124 80.1028C160.983 80.0881 160.848 80.157 160.733 80.2329C160.296 80.5201 159.977 80.9326 159.667 81.3371L158.823 82.4391C158.64 82.6781 158.449 82.943 158.47 83.2352ZM57.7717 79.936C54.8056 74.9181 52.912 69.3615 52.2316 63.6787C52.1898 63.3293 51.7728 63.1029 51.3925 63.1151C51.0122 63.1272 50.6669 63.3129 50.3435 63.4982C45.7521 66.1284 41.8437 69.7689 39.0343 74.0324C38.7499 74.4639 38.4696 74.9222 38.4337 75.4263C38.3984 75.9211 38.6029 76.4011 38.8136 76.8572C41.9126 83.5656 47.0806 89.2555 52.3266 94.706C56.3672 98.904 60.6925 103.153 66.3263 105.267C67.2368 105.608 68.5594 105.747 68.9455 104.912C69.0578 104.669 69.0518 104.396 69.0459 104.132L69.0457 104.122C68.9836 101.291 69.3318 98.4532 70.0779 95.7073C70.2505 95.0721 70.3403 94.2153 69.6971 93.9399C67.2781 92.9042 65.6203 90.8156 64.07 88.8116C61.8421 85.9315 59.6082 83.0428 57.7717 79.936ZM63.008 101.87C62.6748 101.952 62.342 101.758 62.0638 101.569C56.9363 98.0983 52.9627 93.4003 49.0586 88.7655L42.1689 80.5863C43.3318 79.902 43.4795 78.4151 43.5048 77.1414C43.5378 75.4857 43.5619 73.7811 42.9145 72.237C42.7707 71.8938 42.958 71.5134 43.1586 71.1954C44.0188 69.8316 45.2118 68.6482 46.6231 67.7586C46.7598 67.6725 46.9044 67.5869 47.0682 67.5655C47.5004 67.5091 47.8319 67.8975 48.0629 68.2397C48.9751 69.5912 50.2287 71.1196 51.9484 71.0084C52.6032 70.966 52.9663 71.6786 53.1573 72.2589C55.5327 79.4742 59.9927 85.9823 65.2229 91.7725C65.9026 92.5249 66.0731 93.5404 66.2421 94.5467C66.4305 95.6688 66.617 96.7795 67.5055 97.501C68.264 98.117 68.1232 99.2233 67.9185 100.137C67.8767 100.324 67.8268 100.524 67.6731 100.652C67.5589 100.747 67.4046 100.786 67.2563 100.823L63.008 101.87ZM50.8523 69.337C49.9117 68.7297 49.0992 67.9537 48.4734 67.065C48.3381 66.8728 48.2066 66.6574 48.2304 66.4291C48.2562 66.1809 48.4583 65.9822 48.6594 65.8159C49.156 65.4053 49.7173 65.0615 50.3201 64.7988C50.5408 64.7026 50.8258 64.6244 51.0092 64.7732C51.1172 64.8608 51.1512 65.0008 51.1794 65.131L52.0482 69.1456C52.0995 69.383 51.8301 69.5967 51.5683 69.6036C51.3064 69.6105 51.067 69.4756 50.8523 69.337ZM42.2548 77.1019C42.2364 77.857 42.174 78.7045 41.5615 79.2047C41.4333 79.2188 41.3482 79.0888 41.298 78.9789C40.8567 78.0137 40.4092 77.0253 40.3397 75.9795C40.2703 74.9337 40.6496 73.8012 41.5746 73.195C41.6997 73.1129 41.8833 73.0452 41.9938 73.1436C42.0382 73.1831 42.0571 73.2405 42.0733 73.2955C42.3247 74.1491 42.3049 75.0481 42.2833 75.9325L42.2548 77.1019ZM67.215 102.22C67.3635 102.332 67.3793 102.533 67.3834 102.71L67.4275 104.651C66.5658 104.21 65.7402 103.708 64.9602 103.152C64.8123 103.046 64.6497 102.876 64.7403 102.725C64.7852 102.65 64.8786 102.614 64.9655 102.584C65.5231 102.394 66.0997 102.252 66.6855 102.159C66.8666 102.13 67.0728 102.112 67.215 102.22ZM67.2646 94.574C67.2567 94.4864 67.2567 94.3909 67.3131 94.3201C67.4619 94.1332 67.7849 94.3024 67.9214 94.4971C68.2502 94.9662 68.3228 95.5806 68.1112 96.1042C67.6284 95.7218 67.3173 95.1596 67.2646 94.574ZM195.624 79.836C196.483 78.8366 198.048 78.6928 199.429 78.724C199.752 78.7313 200.084 78.7457 200.377 78.8693C201.194 79.2133 201.368 80.1996 201.395 81.0287C201.42 81.783 201.416 82.5473 201.217 83.2794C201.019 84.0115 200.608 84.7169 199.952 85.1662C199.657 85.3681 199.315 85.5153 198.953 85.5713C198.393 85.6579 197.821 85.5251 197.289 85.3423C196.58 85.0986 195.908 84.764 195.298 84.351C195 84.1493 194.692 83.8852 194.683 83.544C194.661 82.7571 194.756 81.9676 194.965 81.2046C195.099 80.717 195.285 80.23 195.624 79.836ZM197.851 84.8136C198.954 85.1061 200.127 84.3179 200.545 83.3306C200.962 82.3433 200.808 81.2345 200.578 80.1959C200.49 79.7971 200.029 79.5744 199.604 79.4678C198.946 79.3027 198.246 79.2808 197.577 79.4044C197.245 79.4658 196.905 79.5709 196.672 79.7981C196.545 79.9219 196.457 80.0747 196.371 80.2255L195.725 81.3537C195.611 81.5521 195.497 81.7523 195.43 81.9682C195.23 82.6137 195.494 83.3305 195.982 83.8281C196.47 84.3257 197.152 84.6284 197.851 84.8136ZM183.091 96.2207C184.102 96.5468 185.019 97.1202 185.722 97.8668C186.326 98.5084 186.787 99.3414 186.66 100.184C186.613 100.493 186.49 100.788 186.349 101.072C185.815 102.147 184.898 103.177 183.638 103.385C182.977 103.495 182.295 103.364 181.66 103.164C180.925 102.933 180.224 102.609 179.583 102.203C179.243 101.988 178.905 101.733 178.756 101.378C178.654 101.134 178.65 100.865 178.654 100.602C178.664 99.9536 178.71 99.294 178.955 98.686C179.265 97.9167 179.871 97.2816 180.513 96.7148C180.772 96.4869 181.046 96.2624 181.378 96.1402C181.921 95.9403 182.539 96.0428 183.091 96.2207ZM184.125 101.875C184.856 101.207 185.281 100.238 185.165 99.2942C185.05 98.3503 184.358 97.4645 183.391 97.1422C182.989 97.0083 182.543 96.971 182.132 97.0762C181.909 97.133 181.701 97.2297 181.507 97.344C180.674 97.8332 180.09 98.6676 179.948 99.5697C179.806 100.472 180.109 101.425 180.756 102.113C181.171 102.554 181.847 102.743 182.474 102.67C183.101 102.596 183.676 102.285 184.125 101.875ZM91.8288 90.6563C91.7948 90.2113 91.1508 90.0946 90.6681 90.1078C88.134 90.1766 85.6032 90.352 83.0863 90.6333C82.6728 90.6795 82.6395 91.2954 82.9712 91.528C83.303 91.7606 83.7651 91.7174 84.1775 91.6631L91.8288 90.6563ZM83.7278 93.6659C83.7496 93.4367 84.0613 93.3537 84.3088 93.3279L99.2348 91.7661C99.5047 91.7378 99.7923 91.7123 100.035 91.8246C100.278 91.9369 100.435 92.2442 100.276 92.448C100.159 92.5982 99.9349 92.6287 99.7356 92.6466L84.469 94.0154C84.1516 94.0438 83.6999 93.9594 83.7278 93.6659ZM117.19 95.9889C116.354 96.1584 115.497 95.88 114.697 95.6034C112.107 94.7092 109.527 93.7903 106.958 92.8469C105.921 92.4661 104.783 93.0364 103.851 93.6025C101.151 95.2408 98.5525 97.0204 96.0708 98.9299C95.4333 99.4203 94.4523 99.0763 93.8095 98.5918C93.6735 98.4894 93.5397 98.3801 93.4054 98.2705C92.9047 97.8616 92.3975 97.4475 91.7498 97.3626C90.7542 97.2321 89.8783 97.9294 89.1569 98.5767L84.5045 102.751C83.8788 103.313 83.2202 104.212 83.7771 104.832C84.1445 105.241 84.8191 105.221 85.3907 105.159C88.3754 104.84 91.3454 104.391 94.3143 103.943C99.2212 103.203 104.125 102.463 109.088 102.304C110.188 102.269 111.289 102.262 112.389 102.256C113.078 102.252 113.767 102.248 114.456 102.237C117.564 102.187 120.669 101.993 123.756 101.657C123.905 101.641 124.075 101.613 124.152 101.494C124.211 101.404 124.196 101.29 124.18 101.186L122.872 92.9669C122.806 92.5492 122.69 92.0665 122.277 91.8861C121.859 91.7038 121.368 91.9388 121.025 92.2247C120.489 92.6721 120.076 93.2663 119.669 93.8524C119 94.8139 118.347 95.7538 117.19 95.9889ZM95.9568 100.486C98.7492 98.3651 101.661 96.3777 104.676 94.535C105.295 94.1567 106.048 93.7693 106.74 94.0177L114.051 96.6428C115.271 97.0809 116.606 97.5247 117.859 97.1734C119.315 96.7651 120.186 95.4263 120.919 94.1942C121.062 93.9546 121.477 93.9821 121.682 94.179C121.887 94.3759 121.939 94.6657 121.982 94.9364L122.517 98.3642C122.599 98.8905 122.68 99.4367 122.515 99.9462C122.35 100.456 121.867 100.919 121.291 100.908C111.88 100.74 102.45 101.458 93.1952 103.045C92.9085 103.094 92.6218 103.144 92.3349 103.194C90.1239 103.58 87.9048 103.967 85.6578 103.974C86.7428 102.554 88.1177 101.348 89.4829 100.152C90.2325 99.4954 91.1697 98.7872 92.1761 99.002C92.7196 99.118 93.1364 99.4788 93.5511 99.8377L93.5513 99.8379L93.5513 99.8379L93.5513 99.8379L93.5513 99.8379L93.5514 99.8379L93.5514 99.838L93.5514 99.838L93.5514 99.838L93.5514 99.838L93.5515 99.8381L93.5515 99.8381L93.5515 99.8381C93.6844 99.9531 93.817 100.068 93.9535 100.174C94.5163 100.613 95.3879 100.919 95.9568 100.486ZM216.698 124.398C216.449 124.484 216.17 124.425 215.916 124.351C214.195 123.851 212.797 122.733 211.424 121.635L211.423 121.634L211.416 121.629L211.41 121.624L211.409 121.623L211.408 121.622L211.408 121.622C211.297 121.534 211.187 121.445 211.077 121.358C211.006 121.302 210.936 121.246 210.866 121.191C208.59 119.397 206.12 117.814 203.505 116.472C203.239 116.335 202.96 116.191 202.797 115.954C202.634 115.716 202.639 115.355 202.89 115.196C204.063 114.456 204.823 113.187 204.879 111.876C204.894 111.527 205.321 111.294 205.699 111.322C206.076 111.35 206.405 111.559 206.713 111.761L218.664 119.599C218.896 119.752 219.147 119.929 219.204 120.187C219.25 120.398 219.155 120.611 219.058 120.807C218.543 121.858 217.95 122.876 217.286 123.853C217.135 124.074 216.963 124.307 216.698 124.398ZM204.743 115.1C204.602 115.329 204.481 115.66 204.708 115.818L214.46 122.602C214.994 122.974 215.824 123.322 216.245 122.842C216.727 122.291 217.178 121.715 217.595 121.12C217.709 120.957 217.825 120.77 217.784 120.58C217.747 120.406 217.589 120.28 217.44 120.169C213.861 117.487 210.071 115.046 206.111 112.87L204.743 115.1ZM199.889 119.248C200.047 118.999 200.238 118.726 200.544 118.665C200.777 118.618 201.015 118.71 201.23 118.807C202.405 119.334 203.48 120.048 204.395 120.908C204.615 121.115 204.642 121.448 204.544 121.724C204.446 122 204.244 122.232 204.047 122.457C203.728 122.819 203.389 123.196 202.92 123.368C202.413 123.553 201.824 123.464 201.344 123.225C200.864 122.986 200.479 122.613 200.14 122.219C199.697 121.705 199.301 121.089 199.37 120.435C199.415 120.007 199.655 119.62 199.889 119.248ZM201.943 122.125C202.682 122.39 203.154 122.18 203.174 121.733C203.186 121.45 202.919 121.233 202.677 121.061L201.943 120.539C201.701 120.367 201.433 120.186 201.128 120.188C200.822 120.19 200.51 120.481 200.636 120.739C200.617 120.864 201.205 121.86 201.943 122.125ZM199.028 127.634C199.208 127.725 199.399 127.814 199.605 127.818C199.81 127.822 200.032 127.714 200.083 127.531C200.201 127.099 200.51 126.741 200.813 126.391L200.813 126.391L200.86 126.336L200.911 126.276C201.243 125.889 201.563 125.45 201.572 124.956C201.58 124.462 201.138 123.935 200.608 124.003C200.191 124.056 199.803 123.803 199.5 123.533C199.451 123.49 199.404 123.446 199.355 123.401C199.102 123.168 198.844 122.93 198.507 122.829C198.107 122.708 197.561 122.9 197.53 123.288C197.466 124.07 196.763 124.658 196.111 125.159C195.915 125.309 196.092 125.597 196.274 125.76C197.096 126.494 198.025 127.126 199.028 127.634ZM199.159 126.144L197.874 125.342C197.548 125.138 197.574 124.638 197.865 124.392C198.156 124.146 198.609 124.127 198.98 124.25C199.351 124.373 199.66 124.615 199.96 124.851C200.158 125.008 200.186 125.293 200.095 125.519C200.004 125.745 199.819 125.926 199.639 126.1C199.577 126.16 199.508 126.223 199.42 126.234C199.325 126.245 199.237 126.194 199.159 126.144ZM209.341 126.197L209.969 124.964C210.161 124.587 210.348 124.12 210.088 123.778C209.998 123.66 209.865 123.576 209.735 123.495L207.45 122.073C207.204 121.919 206.936 121.76 206.639 121.764C206.287 121.769 205.992 122.001 205.742 122.23C205.368 122.573 205.018 122.939 204.695 123.325C204.449 123.618 204.247 124.101 204.583 124.304L208.079 126.424C208.355 126.591 208.706 126.763 208.996 126.617C209.166 126.532 209.259 126.359 209.341 126.197ZM208.566 125.325C208.419 125.356 208.266 125.321 208.122 125.281C207.239 125.035 206.431 124.565 205.811 123.935C205.604 123.725 205.721 123.355 205.983 123.208C206.245 123.062 206.586 123.095 206.869 123.205C207.052 123.276 207.219 123.374 207.386 123.473L207.386 123.473C207.478 123.528 207.569 123.582 207.664 123.631C207.765 123.685 207.871 123.734 207.977 123.783C208.278 123.922 208.578 124.061 208.783 124.302C209.06 124.628 209.003 125.232 208.566 125.325ZM209.747 126.702C210.15 126.613 210.273 126.234 210.401 125.839C210.507 125.513 210.616 125.177 210.889 124.986C211.359 124.658 212.025 124.932 212.531 125.21L214.142 126.096C214.399 126.237 214.662 126.383 214.846 126.6C215.03 126.817 215.12 127.125 214.991 127.374C214.905 127.54 214.743 127.65 214.579 127.761C214.445 127.853 214.31 127.944 214.216 128.067C214.095 128.226 214.05 128.425 214.005 128.621C213.949 128.867 213.894 129.11 213.691 129.265C213.32 129.547 212.769 129.321 212.359 129.09L210.09 127.808C209.861 127.679 209.619 127.537 209.507 127.312C209.394 127.087 209.486 126.759 209.747 126.702ZM212.722 127.974C213.047 127.871 213.308 127.649 213.559 127.432C213.74 127.275 213.497 127.016 213.281 126.904L211.89 126.18C211.745 126.105 211.543 126.036 211.431 126.149C211.069 126.515 211.016 127.11 211.31 127.525C211.603 127.939 212.215 128.134 212.722 127.974ZM196.771 127.929C196.46 127.848 196.143 127.765 195.889 127.605C195.494 127.357 194.944 127.417 194.53 127.637C194.116 127.856 193.807 128.209 193.508 128.553C193.342 128.744 193.171 128.944 193.108 129.181C193.045 129.419 193.12 129.708 193.352 129.827L195.776 131.075C195.96 131.17 196.165 131.268 196.37 131.226C196.574 131.184 196.715 131.016 196.838 130.86L197.462 130.067C197.809 129.625 198.172 129.063 197.918 128.57C197.715 128.175 197.249 128.054 196.771 127.929ZM196.004 129.983C195.877 130.014 195.746 129.958 195.629 129.903L193.978 129.126C194.295 128.711 194.899 128.552 195.447 128.602C195.995 128.652 196.503 128.877 196.998 129.098L196.239 129.827C196.171 129.892 196.098 129.96 196.004 129.983ZM184.561 98.9283C184.817 99.2886 184.737 99.77 184.567 100.171C184.344 100.7 183.966 101.19 183.432 101.472C182.898 101.753 182.197 101.794 181.677 101.492C181.157 101.189 180.896 100.517 181.174 100.011C181.239 99.8938 181.327 99.7901 181.415 99.6864C181.499 99.5871 181.583 99.4878 181.647 99.3768C181.689 99.3037 181.721 99.2262 181.754 99.1488C181.801 99.0371 181.848 98.9257 181.922 98.8282C182.187 98.4819 182.709 98.4137 183.168 98.4197C183.688 98.4265 184.276 98.526 184.561 98.9283ZM183.399 99.1572C182.687 99.1489 182.019 99.7007 181.949 100.355C181.92 100.623 182.043 100.956 182.331 100.993C182.547 101.02 182.737 100.866 182.882 100.716C183.189 100.398 183.453 100.044 183.665 99.6653C183.736 99.5383 183.799 99.3754 183.706 99.2614C183.637 99.1785 183.512 99.1585 183.399 99.1572ZM200.433 81.9951C200.378 81.3926 199.941 80.8 199.308 80.6491C198.503 80.4573 197.722 80.981 197.083 81.4722C196.894 81.6176 196.697 81.7738 196.617 81.9886C196.481 82.3532 196.725 82.7373 196.966 83.0522C197.242 83.4128 197.536 83.7754 197.939 84.0137C198.341 84.2521 198.877 84.3446 199.299 84.1375C199.514 84.0319 199.682 83.8594 199.827 83.6789C200.218 83.1938 200.487 82.5977 200.433 81.9951ZM198.647 83.5399C198.375 83.5776 198.092 83.4758 197.891 83.3011C197.59 83.0393 197.471 82.6185 197.576 82.2492C197.686 81.8604 198.04 81.5393 198.462 81.4434C198.885 81.3475 199.359 81.4808 199.652 81.778C199.641 81.859 199.632 81.9405 199.622 82.0221C199.591 82.2992 199.56 82.5767 199.456 82.837C199.322 83.1739 199.032 83.4866 198.647 83.5399ZM176.98 177.525C178.464 172.674 181.266 168.271 184.039 163.929C184.508 163.195 185.089 162.387 185.999 162.248C186.358 162.193 186.547 161.833 186.669 161.516C188.173 157.618 188.318 153.283 187.077 149.306C186.723 148.171 187.159 146.968 187.591 145.856L190.931 137.247C190.584 136.692 189.927 136.448 189.261 136.201C188.705 135.994 188.142 135.785 187.749 135.39C186.641 134.273 187.477 132.498 188.346 131.213L203.57 108.685C204.192 107.765 205.557 107.476 206.7 107.721C207.844 107.967 208.82 108.631 209.761 109.281L220.865 116.943C222.851 118.314 225.044 120.065 224.93 122.354C224.866 123.62 224.082 124.746 223.323 125.802L214.523 138.054C213.386 139.638 213.247 141.565 213.109 143.499V143.5C213.046 144.375 212.983 145.251 212.828 146.099C212.069 150.236 209.087 153.662 206.231 156.944L205.89 157.336C202.933 160.738 199.975 164.537 199.809 168.898C199.611 174.095 196.939 179.17 192.636 182.523L196.38 174.13C197.27 172.134 198.095 169.651 196.605 167.988C195.931 167.236 194.912 166.838 193.933 166.467L188.118 164.263C187.717 164.111 187.304 163.956 186.871 163.954C185.52 163.946 184.716 165.3 184.168 166.441C182.273 170.388 179.853 174.12 176.98 177.525ZM196.101 166.127C197.098 166.469 198.502 166.676 198.974 165.796C201.261 161.537 203.61 157.196 207.25 153.835C209.348 151.898 210.634 149.313 211.362 146.657C212.09 144 212.296 141.249 212.499 138.515C211.615 138.812 211.539 139.914 211.542 140.782C211.551 142.697 211.188 144.612 210.478 146.411C210.329 146.787 210.129 147.194 209.731 147.353C209.333 147.512 208.746 147.193 208.88 146.812C209.907 143.886 210.29 140.769 209.999 137.705C209.908 136.755 209.717 135.738 208.986 135.065C209.065 136.565 209.144 138.072 208.98 139.566C208.695 142.151 207.692 144.615 206.698 147.046C206.569 147.361 206.413 147.705 206.085 147.853C205.757 148.002 205.248 147.767 205.333 147.439L206.822 141.752C207.641 138.625 208.446 135.262 207.179 132.266C206.54 132.226 206.39 133.069 206.447 133.658C206.837 137.69 205.631 141.693 204.436 145.588C204.297 146.042 203.804 146.611 203.42 146.298C203.255 146.163 203.247 145.931 203.26 145.728C203.336 144.582 203.676 143.473 204.015 142.366C204.12 142.022 204.226 141.678 204.323 141.333C205.221 138.157 205.45 134.82 204.993 131.564C204.207 132.496 203.873 133.677 203.558 134.822L201.69 141.619C200.845 144.691 199.765 148.069 196.836 149.719C196.603 149.851 196.332 149.973 196.066 149.915C195.736 149.842 195.549 149.527 195.411 149.24C193.541 145.349 193.308 140.81 194.769 136.773C194.858 136.528 194.588 136.272 194.31 136.252C194.031 136.232 193.77 136.372 193.541 136.521C191.143 138.084 190.224 140.917 189.461 143.536L188.447 147.018C188.299 147.527 188.15 148.04 188.119 148.566C188.072 149.365 188.298 150.147 188.523 150.925L188.523 150.926C188.575 151.106 188.627 151.286 188.675 151.466C189.651 155.084 189.21 159.013 187.452 162.369C187.193 162.864 187.877 163.314 188.435 163.505L196.101 166.127ZM199.89 132.893C199.49 132.639 199.061 132.348 198.938 131.914C198.748 131.249 199.434 130.581 200.172 130.491C200.911 130.401 201.633 130.731 202.245 131.123C203.107 131.675 204.198 130.833 204.843 130.069C203.973 129.588 203.142 128.841 203.108 127.904C203.073 126.967 204.306 126.075 205.127 126.626C205.445 126.84 205.83 126.971 206.211 127.101C206.781 127.295 207.342 127.485 207.655 127.947C208.011 128.472 207.885 129.182 207.522 129.703C207.16 130.225 206.602 130.599 206.058 130.961C206.839 131.032 207.6 131.29 208.247 131.702L208.952 129.804C209.007 129.657 209.066 129.503 209.191 129.399C209.433 129.198 209.809 129.26 210.118 129.351C210.93 129.589 211.726 129.961 212.262 130.572C212.798 131.184 213.021 132.072 212.646 132.779C212.272 133.486 211.216 133.862 210.5 133.436C210.351 133.348 210.202 133.23 210.053 133.112C209.654 132.796 209.255 132.48 208.87 132.733C210.046 133.579 210.854 134.85 211.08 136.211C214.783 131 218.446 125.765 222.068 120.507C222.414 120.005 222.693 119.213 222.13 118.925C219.724 117.691 217.598 116.04 215.476 114.392L215.476 114.392C212.798 112.312 210.129 110.239 206.915 109.021C206.711 108.944 206.488 108.869 206.275 108.921C206.052 108.976 205.895 109.155 205.754 109.325C199.771 116.541 194.4 124.191 189.71 132.181C189.055 133.296 189.931 134.625 190.769 135.629C191.188 136.131 191.996 136.661 192.452 136.188C193.028 135.592 193.971 135.252 194.786 135.518C195.601 135.784 196.108 136.763 195.665 137.449C195.344 137.945 195.972 138.496 196.52 138.773C197.616 139.328 198.739 139.835 199.886 140.292C200.046 140.355 200.231 140.417 200.387 140.346C200.534 140.277 200.594 140.114 200.641 139.968L201.911 135.928C202.12 135.264 202.26 134.402 201.643 134.009L199.89 132.893ZM222.62 121.569C222.452 121.516 222.298 121.672 222.199 121.809L212.684 134.967C212.428 135.321 212.166 135.69 212.092 136.11C212.017 136.53 212.184 137.018 212.598 137.205C213.283 137.515 214 136.864 214.439 136.288L223.279 124.712C223.936 123.853 223.38 122.678 222.818 121.763C222.77 121.684 222.713 121.599 222.62 121.569ZM195.833 139.141C195.666 139.028 195.415 139.095 195.275 139.236C195.135 139.377 195.078 139.57 195.025 139.755C194.895 140.211 194.764 140.671 194.745 141.142C194.726 141.613 194.818 142.081 194.91 142.544L195.821 147.12C195.86 147.312 195.904 147.516 196.052 147.655C196.199 147.795 196.486 147.826 196.605 147.665C197.953 145.842 199.321 143.985 200.026 141.876C200.114 141.613 200.139 141.245 199.861 141.148C198.429 140.65 197.07 139.973 195.833 139.141ZM206.355 127.851C205.898 127.449 205.294 127.192 204.667 127.133C204.095 127.079 203.765 127.821 204.026 128.295C204.287 128.768 204.864 129.002 205.398 129.2C205.774 129.34 206.231 129.471 206.56 129.251C207.032 128.934 206.777 128.222 206.355 127.851ZM202.599 133.153C202.785 133.031 202.809 132.78 202.757 132.575C202.561 131.8 201.641 131.405 200.816 131.178C200.497 131.09 200.1 131.029 199.875 131.256C199.687 131.445 199.727 131.759 199.889 131.968C200.051 132.177 200.305 132.305 200.549 132.427L201.824 133.061C202.066 133.182 202.374 133.3 202.599 133.153ZM209.851 130.362C209.581 130.695 209.609 131.181 209.834 131.542C210.059 131.903 210.449 132.154 210.861 132.324C211.002 132.383 211.157 132.434 211.308 132.407C211.439 132.383 211.55 132.301 211.63 132.203C211.924 131.839 211.781 131.292 211.444 130.962C211.107 130.631 210.627 130.466 210.165 130.311C210.085 130.284 209.992 130.259 209.919 130.299C209.892 130.314 209.871 130.338 209.851 130.362ZM82.0156 160.626C82.1921 159.421 82.4394 158.094 83.4641 157.331C84.2812 156.723 85.403 156.626 86.4523 156.607C89.8897 156.546 93.3382 157.062 96.5793 158.122C97.6046 158.457 98.6777 158.899 99.2383 159.76C99.8452 160.692 99.6972 161.868 99.5295 162.945L96.9263 179.653C98.7212 174.815 100.01 169.815 100.768 164.749C101.122 162.385 101.246 159.672 99.4601 157.948C96.6727 155.256 96.7487 151.422 96.826 147.524C96.8928 144.16 96.9604 140.748 95.1892 137.98C94.6112 137.077 95.8997 136.145 96.9713 135.798C101.695 134.27 106.73 133.569 111.731 133.743C112.648 140.435 112.896 147.205 112.471 153.939C112.376 155.449 114.694 155.839 116.321 155.672L172.775 149.888C173.058 149.859 173.363 149.82 173.564 149.634C173.797 149.417 173.809 149.075 173.806 148.769C173.672 136.547 173.292 124.328 172.664 112.12C172.639 111.644 172.574 111.097 172.147 110.828C171.827 110.627 171.406 110.654 171.02 110.688L130.725 114.298C133.373 102.762 136.035 91.0103 134.827 79.2714C126.019 84.6978 114.652 84.6571 104.084 84.0825C103.644 84.0586 103.204 84.0343 102.763 84.0099C92.5922 83.4483 81.9857 82.8626 72.8421 86.9277C77.6297 98.6562 82.4722 111.458 78.4925 123.442C78.1405 124.502 77.7215 125.543 77.3028 126.584C76.6572 128.189 76.0121 129.793 75.6131 131.462C74.9553 134.215 75.0542 137.297 76.8172 139.597C79.3701 142.928 81.3989 146.716 81.8616 150.775C82.3007 154.627 81.3195 158.448 80.3395 162.264C79.3155 166.251 78.2927 170.233 78.8925 174.242C78.9939 174.921 79.1772 175.65 79.7519 176.082L82.0156 160.626ZM86.0098 112.22C87.0773 112.255 87.5017 113.493 87.6382 114.472L88.7191 122.224C86.6086 121.213 83.6397 122.929 83.7002 125.124C81.9219 121.953 81.6517 118.318 81.3842 114.72C81.326 113.937 81.268 113.156 81.1946 112.382C80.4094 104.105 77.7093 96.098 75.0259 88.167C74.6433 87.0361 76.296 86.3027 77.5649 86.1309C85.8913 85.0029 94.3184 85.1587 102.749 85.3145C106.571 85.3851 110.393 85.4557 114.208 85.4068C120.985 85.32 128.156 84.7273 133.653 81.0643C134.889 88.6751 133.21 96.354 131.551 103.936C131.327 104.962 131.103 105.986 130.887 107.007C129.072 115.582 127.836 124.722 131.309 132.848C131.455 133.191 130.956 133.449 130.566 133.524C127.71 134.075 124.757 134.193 121.86 133.874C120.617 133.737 119.387 133.52 118.157 133.303C117.231 133.14 116.305 132.977 115.373 132.848C108.355 131.875 101.03 132.885 94.6259 135.708C94.3692 135.821 94.0639 135.768 93.7951 135.682C92.498 135.267 91.5727 134.16 91.1111 132.966C90.6494 131.771 90.5833 130.482 90.5217 129.215L90.2634 123.902C90.2541 123.711 90.3082 123.452 90.515 123.446C101.734 123.122 112.94 122.423 124.105 121.351C123.633 118.91 123.586 116.4 123.967 113.946C124.207 112.397 122.63 110.984 120.951 110.777C119.272 110.569 117.612 111.272 116.217 112.161C115.696 112.494 115.195 112.855 114.695 113.216C113.857 113.82 113.021 114.424 112.089 114.891C111.479 115.197 110.746 115.444 110.106 115.197C109.322 114.895 109.06 114.033 108.825 113.264C108.81 113.216 108.796 113.168 108.781 113.121C108.475 112.131 107.971 111.145 107.083 110.522C106.196 109.9 104.857 109.745 103.981 110.381C103.232 110.925 102.995 111.868 102.87 112.74C102.859 112.818 102.848 112.896 102.837 112.974C102.726 113.776 102.611 114.606 102.093 115.249C101.524 115.955 100.254 116.258 99.6305 115.593C98.3967 114.277 96.2317 114.001 94.4149 114.463C92.5982 114.924 91.0437 115.991 89.5364 117.036C88.6271 115.721 88.5519 113.95 89.3468 112.574L89.3601 112.551C89.5096 112.293 89.6813 111.996 89.5491 111.733C89.4673 111.57 89.2868 111.47 89.108 111.399C88.0391 110.975 86.6733 111.337 86.0098 112.22ZM118.133 134.44C118.731 134.55 119.466 134.796 119.503 135.358C119.855 140.719 124.466 145.536 130.135 146.723C135.804 147.909 142.087 145.51 145.392 141.092C148.698 136.675 148.957 130.538 146.246 125.787C143.339 120.692 136.275 117.986 130.319 119.686C130.043 118.56 130.074 117.371 130.409 116.259C130.471 116.052 130.552 115.836 130.733 115.702C130.909 115.57 131.147 115.54 131.372 115.515L148.15 113.648C149.625 113.484 151.104 113.319 152.589 113.308C158.978 113.259 165.361 112.671 171.634 111.552C172.609 123.645 173.068 135.774 173.009 147.9C173.006 148.476 172.817 149.24 172.194 149.257C161.635 149.541 151.16 150.824 140.68 152.108C133.639 152.971 126.596 153.834 119.525 154.394C117.949 154.519 116.362 154.628 114.787 154.49C114.502 154.465 114.18 154.411 114.025 154.188C113.931 154.053 113.921 153.885 113.913 153.726L112.971 134.33C112.959 134.079 112.976 133.777 113.21 133.651C113.366 133.567 113.561 133.597 113.737 133.63L118.133 134.44ZM89.2453 129.949C89.0784 130.957 88.8907 132.09 89.605 132.852C92.2694 135.695 95.0372 138.733 95.7454 142.436C96.0761 144.165 95.9341 145.945 95.7926 147.718C95.6144 149.951 95.4371 152.172 96.2067 154.267C96.2267 154.321 96.2475 154.376 96.2683 154.431C96.4097 154.804 96.5538 155.185 96.508 155.575C96.4554 156.022 96.0353 156.472 95.5555 156.396L89.9856 155.508C88.141 155.214 86.1923 154.928 84.4402 155.536C84.1015 155.654 83.7115 155.448 83.53 155.158C83.3485 154.869 83.3246 154.521 83.3088 154.187C83.2898 153.784 83.2756 153.377 83.2613 152.97C83.1713 150.408 83.0796 147.798 81.7962 145.553L77.7012 138.391C77.0967 137.334 76.4781 136.229 76.4364 135.034C76.4085 134.236 76.6417 133.452 76.8729 132.683L78.9157 125.884C79.3458 124.452 79.8008 122.976 80.8193 121.826C83.2937 125.705 83.5379 130.722 81.4502 134.791C81.2571 135.167 81.847 135.554 82.2676 135.404C82.6881 135.254 82.9016 134.829 83.0499 134.435C83.6437 132.86 83.852 131.199 84.0605 129.536C84.2292 128.19 84.3981 126.843 84.7717 125.538C85.0005 124.738 85.3306 123.922 85.9987 123.372C86.6668 122.822 87.7564 122.634 88.4565 123.149C88.9922 123.543 89.1664 124.217 89.2683 124.842C89.5372 126.493 89.5359 128.182 89.2646 129.832C89.2583 129.871 89.2518 129.91 89.2453 129.949ZM98.856 116.527C99.677 117.107 100.481 117.676 101.466 117.571C102.718 117.437 103.499 116.246 103.862 115.131C103.942 114.887 104.013 114.637 104.084 114.387C104.337 113.493 104.592 112.593 105.256 111.921C105.448 111.725 105.726 111.543 106 111.62C106.222 111.682 106.351 111.89 106.454 112.081C106.6 112.353 106.738 112.63 106.876 112.906C107.266 113.686 107.656 114.466 108.222 115.144C108.989 116.062 110.181 116.784 111.429 116.658C112.544 116.545 113.416 115.815 114.265 115.104C114.439 114.958 114.612 114.813 114.787 114.674C116.833 113.044 119.497 112.09 122.198 112.021C121.834 112.862 122.077 113.78 122.315 114.68C122.372 114.897 122.43 115.113 122.478 115.326C122.859 117.01 122.666 118.801 121.934 120.383L103.896 121.666C99.6847 121.966 95.4631 122.266 91.2423 122.128C90.9757 122.12 90.7022 122.108 90.457 122.011C89.9937 121.828 89.7185 121.371 89.6188 120.915C89.3952 119.891 89.9059 118.825 90.6792 118.064C91.4526 117.303 92.4627 116.791 93.4547 116.291C94.487 115.771 95.6331 115.233 96.7841 115.455C97.55 115.603 98.2083 116.069 98.856 116.527ZM133.013 140.804C130.28 140.752 127.913 138.692 127.101 136.281C126.936 135.788 127.28 135.248 127.756 134.978C128.231 134.708 128.806 134.644 129.36 134.586L133.364 134.171C132.147 131.984 131.279 129.631 130.799 127.212C130.756 126.993 130.716 126.762 130.791 126.55C130.923 126.178 131.357 125.982 131.759 125.857C135.012 124.847 138.918 126.073 140.831 128.706C142.744 131.339 142.494 135.144 140.248 137.542C139.276 138.581 138.003 139.347 136.661 139.937C135.516 140.439 134.28 140.828 133.013 140.804ZM145.98 127.807C146.467 129.29 146.607 130.851 146.674 132.4C145.582 132.247 144.479 132.16 143.375 132.14C143.159 129.535 141.283 127.181 138.815 125.905C136.348 124.628 133.37 124.352 130.583 124.789C130.559 124.422 130.487 124.039 130.414 123.656C130.223 122.644 130.032 121.633 130.739 120.915C131.167 120.482 131.818 120.308 132.442 120.201C135.284 119.712 138.315 120.224 140.785 121.612C143.256 123 145.143 125.25 145.98 127.807ZM125.939 136.018C125.934 136.066 125.93 136.113 125.928 136.158C125.909 136.518 126.091 136.849 126.27 137.175C126.319 137.263 126.367 137.35 126.411 137.438C126.619 137.853 126.72 138.399 126.372 138.723C125.529 139.509 124.785 140.384 124.158 141.326C124.003 141.559 123.621 141.578 123.366 141.439C123.111 141.3 122.953 141.053 122.806 140.815C121.874 139.314 120.919 137.743 120.803 136.016C120.788 135.801 120.814 135.541 121.02 135.441C121.111 135.397 121.218 135.396 121.32 135.395L125.489 135.384C125.588 135.383 125.693 135.384 125.78 135.43C125.984 135.537 125.961 135.786 125.939 136.018Z" fill="#262626"/>
</svg>
