<svg width="70" height="44" viewBox="0 0 70 44" fill="none" xmlns="http://www.w3.org/2000/svg">
<path d="M44.9726 40.4924C45.1878 40.8225 45.3099 41.2045 45.326 41.5982C45.342 41.9919 45.2514 42.3827 45.0638 42.7291C44.8761 43.0756 44.5983 43.365 44.2598 43.5666C43.9213 43.7683 43.5346 43.8748 43.1406 43.8748H2.79758C2.40355 43.8748 2.01684 43.7683 1.67832 43.5666C1.3398 43.365 1.06204 43.0756 0.874374 42.7291C0.68671 42.3827 0.596118 41.9919 0.612167 41.5982C0.628217 41.2045 0.750312 40.8225 0.965553 40.4924C4.04475 35.7527 8.57393 32.1357 13.8773 30.1811C10.9455 28.2292 8.71962 25.3857 7.52887 22.0711C6.33812 18.7564 6.24569 15.1465 7.26525 11.7752C8.28482 8.40389 10.3622 5.45021 13.1903 3.35091C16.0184 1.25162 19.447 0.118164 22.9691 0.118164C26.4912 0.118164 29.9197 1.25162 32.7478 3.35091C35.5759 5.45021 37.6533 8.40389 38.6729 11.7752C39.6924 15.1465 39.6 18.7564 38.4093 22.0711C37.2185 25.3857 34.9927 28.2292 32.0609 30.1811C37.3642 32.1357 41.8934 35.7527 44.9726 40.4924ZM69.0105 40.4514C65.9305 35.7317 61.4114 32.1302 56.1234 30.1811C59.5845 27.8496 62.0271 24.2869 62.954 20.218C63.8809 16.149 63.2224 11.8799 61.1125 8.27935C59.0027 4.67884 55.6001 2.01766 51.5973 0.837479C47.5945 -0.342702 43.2924 0.0468253 39.5667 1.92677C39.4243 2.00033 39.2997 2.10431 39.2019 2.23135C39.1041 2.35839 39.0354 2.50539 39.0007 2.66192C38.966 2.81846 38.9661 2.98071 39.0011 3.13718C39.0361 3.29366 39.105 3.44053 39.2031 3.5674C41.9734 7.02313 43.5645 11.2752 43.7431 15.7007C43.9217 20.1262 42.6785 24.4926 40.1956 28.1604C40.0351 28.4001 39.9759 28.6934 40.0307 28.9767C40.0854 29.2599 40.2499 29.5099 40.4882 29.6725C43.7254 31.9318 46.4967 34.7941 48.6503 38.1026C49.5189 39.4327 49.8736 41.0335 49.6484 42.6061C49.623 42.7625 49.632 42.9226 49.6746 43.0752C49.7172 43.2278 49.7925 43.3694 49.8952 43.4901C49.9979 43.6107 50.1256 43.7076 50.2695 43.7741C50.4134 43.8405 50.57 43.8749 50.7284 43.8748H67.2167C67.6984 43.875 68.1667 43.7161 68.5489 43.4229C68.931 43.1297 69.2058 42.7186 69.3304 42.2533C69.4064 41.9473 69.4173 41.6288 69.3621 41.3183C69.307 41.0079 69.1872 40.7125 69.0105 40.4514Z" fill="#262626"/>
</svg>
