<svg width="62" height="56" viewBox="0 0 62 56" fill="none" xmlns="http://www.w3.org/2000/svg">
<path d="M60.5312 19.3679C60.1217 18.9003 59.6173 18.5252 59.0515 18.2678C58.4857 18.0104 57.8715 17.8764 57.2499 17.875H47.305L32.6406 1.12146C32.4353 0.888699 32.1828 0.70228 31.9 0.574589C31.6171 0.446898 31.3103 0.380859 30.9999 0.380859C30.6896 0.380859 30.3828 0.446898 30.0999 0.574589C29.817 0.70228 29.5646 0.888699 29.3593 1.12146L14.6949 17.875H4.74993C4.12667 17.875 3.51061 18.0082 2.943 18.2656C2.37539 18.523 1.86933 18.8987 1.45872 19.3676C1.0481 19.8365 0.742398 20.3877 0.562087 20.9843C0.381777 21.5809 0.331018 22.2091 0.41321 22.8269L4.20305 51.2672C4.34356 52.3182 4.86104 53.2825 5.65926 53.9806C6.45747 54.6788 7.48207 55.0632 8.54251 55.0625H53.4574C54.5178 55.0632 55.5424 54.6788 56.3406 53.9806C57.1388 53.2825 57.6563 52.3182 57.7968 51.2672L61.5894 22.8297C61.6702 22.2106 61.6176 21.5813 61.4351 20.9842C61.2526 20.3871 60.9444 19.836 60.5312 19.3679ZM18.3124 46.3125C18.2387 46.3165 18.1647 46.3165 18.0909 46.3125C17.5468 46.3152 17.0211 46.115 16.6166 45.751C16.2121 45.3869 15.9579 44.8852 15.9034 44.3437L14.3722 29.0312C14.3142 28.454 14.4879 27.8773 14.855 27.4281C15.2222 26.9789 15.7527 26.6939 16.33 26.6359C16.9073 26.5779 17.4839 26.7516 17.9331 27.1187C18.3823 27.4859 18.6673 28.0165 18.7253 28.5937L20.2566 43.9062C20.3178 44.4831 20.1474 45.0607 19.7828 45.512C19.4182 45.9632 18.8893 46.2512 18.3124 46.3125ZM33.1874 44.125C33.1874 44.7051 32.957 45.2615 32.5467 45.6718C32.1365 46.082 31.5801 46.3125 30.9999 46.3125C30.4198 46.3125 29.8634 46.082 29.4531 45.6718C29.0429 45.2615 28.8124 44.7051 28.8124 44.125V28.8125C28.8124 28.2323 29.0429 27.6759 29.4531 27.2657C29.8634 26.8554 30.4198 26.625 30.9999 26.625C31.5801 26.625 32.1365 26.8554 32.5467 27.2657C32.957 27.6759 33.1874 28.2323 33.1874 28.8125V44.125ZM20.5081 17.875L30.9999 5.88475L41.4917 17.875H20.5081ZM47.614 29.0312L46.0827 44.3437C46.0286 44.8828 45.7762 45.3827 45.3746 45.7464C44.973 46.1101 44.4507 46.3118 43.9089 46.3125C43.8351 46.3165 43.7612 46.3165 43.6874 46.3125C43.4016 46.2838 43.1242 46.199 42.8711 46.0631C42.6181 45.9272 42.3942 45.7427 42.2124 45.5203C42.0306 45.2979 41.8944 45.0418 41.8116 44.7668C41.7287 44.4917 41.7009 44.203 41.7296 43.9172L43.2609 28.6047C43.3189 28.0274 43.6038 27.4968 44.053 27.1297C44.5023 26.7625 45.0789 26.5888 45.6562 26.6469C46.2334 26.7049 46.764 26.9898 47.1312 27.439C47.4983 27.8882 47.672 28.4649 47.614 29.0422V29.0312Z" fill="#262626"/>
</svg>
